<?xml version="1.0" encoding="iso-8859-1"?>
<!-- Uploaded to: SVG Repo, www.svgrepo.com, Generator: SVG Repo Mixer Tools -->
<svg fill="#000000" height="800px" width="800px" version="1.1" id="Layer_1" xmlns="http://www.w3.org/2000/svg" xmlns:xlink="http://www.w3.org/1999/xlink" 
	 viewBox="0 0 496.022 496.022" xml:space="preserve">
<g>
	<g>
		<g>
			<path d="M449.483,256.006c3.312,9.288,12.112,16,22.528,16c13.232,0,24-10.768,24-24c0-13.232-10.768-24-24-24
				c-10.416,0-19.216,6.712-22.528,16h-57.88c-1.128-20.336-6.432-39.536-15.168-56.776l34.536-19.256
				c3.912,2.544,8.424,4.024,13.072,4.024c4.072,0,8.192-1.04,11.96-3.208c5.544-3.2,9.52-8.384,11.176-14.568
				c1.656-6.192,0.808-12.664-2.4-18.2c-3.2-5.56-8.384-9.528-14.576-11.192c-6.184-1.664-12.664-0.8-18.2,2.4
				c-9.888,5.72-14.144,17.448-10.88,27.928l-32.656,18.208c-10.888-16.624-25.096-30.848-41.712-41.752l46.184-79.992
				c1.008,0.128,2.008,0.392,3.016,0.392c8.296,0,16.384-4.304,20.832-11.992c6.616-11.464,2.672-26.168-8.784-32.792
				c-5.544-3.192-12.024-4.072-18.208-2.4c-6.192,1.664-11.376,5.632-14.576,11.192c-3.2,5.544-4.056,12.008-2.4,18.2
				c1.048,3.904,3.096,7.328,5.8,10.184l-45.744,79.224c-17.264-8.76-36.504-14.088-56.88-15.216v-57.88
				c9.304-3.312,16.016-12.112,16.016-22.528c0-13.232-10.768-24-24-24c-13.232,0-24,10.768-24,24c0,10.416,6.712,19.216,16,22.528
				v57.88c-20.376,1.128-39.616,6.448-56.88,15.216l-45.744-79.224c7.072-7.52,8.824-19.016,3.408-28.392
				c-3.2-5.544-8.384-9.52-14.568-11.176c-6.224-1.664-12.672-0.8-18.2,2.4c-5.56,3.2-9.528,8.384-11.192,14.576
				c-1.656,6.184-0.808,12.656,2.4,18.2c4.432,7.688,12.52,11.992,20.816,11.992c1.008,0,2.016-0.264,3.024-0.392l46.184,79.984
				c-16.584,10.88-30.768,25.072-41.648,41.648l-50.08-28.912c1.776-9.704-2.496-19.912-11.504-25.12
				c-5.536-3.192-12-4.064-18.208-2.392c-6.208,1.664-11.376,5.64-14.584,11.184c-6.616,11.456-2.68,26.168,8.776,32.792h0.016
				c3.768,2.168,7.88,3.2,11.944,3.2c5.656,0,11.12-2.136,15.488-5.84l50.168,28.968c-8.76,17.264-14.088,36.504-15.216,56.88
				H46.539c-3.312-9.288-12.112-16-22.528-16c-13.232,0-24,10.768-24,24c0,13.232,10.768,24,24,24c10.416,0,19.216-6.712,22.528-16
				h57.88c1.128,20.376,6.448,39.616,15.216,56.88l-74.608,43.072c-2.088-1.352-4.336-2.472-6.808-3.136
				c-6.192-1.664-12.656-0.816-18.208,2.392c-11.464,6.624-15.408,21.328-8.792,32.792c4.448,7.688,12.528,11.992,20.832,11.992
				c4.064,0,8.176-1.032,11.944-3.2h0.016c9.92-5.736,14.168-17.536,10.84-28.032l72.744-42
				c10.904,16.616,25.128,30.824,41.752,41.712l-22.176,39.776c-9.336-1.224-18.952,3.112-23.96,11.76
				c-6.616,11.464-2.672,26.168,8.784,32.792c3.704,2.136,7.808,3.224,11.968,3.224c2.08,0,4.176-0.272,6.24-0.832
				c6.192-1.664,11.376-5.632,14.576-11.192c3.2-5.544,4.056-12.008,2.4-18.2c-1.048-3.904-3.096-7.328-5.8-10.184l21.84-39.176
				c17.24,8.736,36.44,14.04,56.776,15.168v57.88c-9.288,3.312-16,12.112-16,22.528c0,13.232,10.768,24,24,24
				c13.232,0,24-10.768,24-24c0-10.416-6.712-19.216-16-22.528v-57.88c20.376-1.128,39.616-6.448,56.88-15.216l28.928,50.104
				c-6.384,7.512-7.8,18.488-2.6,27.52c4.448,7.68,12.528,11.984,20.832,11.984c4.072,0,8.184-1.032,11.952-3.208
				c5.552-3.2,9.528-8.376,11.184-14.568c1.664-6.192,0.816-12.656-2.392-18.208c-5.208-9.008-15.416-13.28-25.12-11.512
				l-28.912-50.08c16.584-10.88,30.768-25.072,41.648-41.648l72.744,42c-3.328,10.496,0.92,22.296,10.848,28.032
				c3.792,2.152,7.912,3.192,11.984,3.192c8.296,0,16.384-4.304,20.832-11.992c3.2-5.552,4.056-12.024,2.4-18.208
				c-1.664-6.192-5.632-11.376-11.192-14.576c-5.544-3.2-12.008-4.064-18.2-2.4c-2.472,0.664-4.712,1.784-6.8,3.136l-74.608-43.08
				c8.752-17.264,14.072-36.504,15.2-56.88H449.483z M472.011,240.006c4.416,0,8,3.584,8,8s-3.584,8-8,8c-4.416,0-8-3.584-8-8
				C464.011,243.59,467.595,240.006,472.011,240.006z M420.011,137.078c1.232-0.72,2.6-1.08,3.984-1.08
				c0.696,0,1.392,0.096,2.08,0.272c2.072,0.552,3.792,1.88,4.856,3.744c1.072,1.84,1.36,4,0.808,6.064
				c-0.552,2.064-1.872,3.792-3.728,4.848c-3.824,2.2-8.736,0.896-10.928-2.92C414.867,144.182,416.187,139.278,420.011,137.078z
				 M369.091,20.014v-0.016c1.072-1.84,2.792-3.168,4.856-3.728c0.688-0.176,1.384-0.272,2.08-0.272c1.384,0,2.752,0.368,3.984,1.08
				c3.824,2.2,5.144,7.112,2.928,10.92c-2.2,3.832-7.12,5.128-10.928,2.928c-1.848-1.064-3.168-2.792-3.728-4.848
				C367.723,24.022,368.019,21.854,369.091,20.014z M124.011,30.934c-3.832,2.216-8.736,0.896-10.928-2.928
				c-1.072-1.848-1.352-4-0.808-6.064c0.552-2.072,1.88-3.792,3.744-4.856c1.224-0.72,2.592-1.08,3.976-1.08
				c0.696,0,1.4,0.096,2.088,0.272c2.064,0.552,3.792,1.872,4.848,3.728C129.139,23.83,127.819,28.734,124.011,30.934z
				 M60.947,140.006c-2.192,3.816-7.096,5.152-10.928,2.928c-3.824-2.208-5.136-7.112-2.92-10.936
				c1.072-1.84,2.792-3.168,4.848-3.72c2.088-0.552,4.216-0.264,6.072,0.8C61.843,131.278,63.155,136.182,60.947,140.006z
				 M24.011,256.006c-4.416,0-8-3.584-8-8c0-4.416,3.584-8,8-8s8,3.584,8,8S28.427,256.006,24.011,256.006z M36.011,382.934
				c-3.832,2.208-8.736,0.88-10.928-2.928c-2.208-3.824-0.888-8.728,2.928-10.928c1.232-0.712,2.6-1.08,3.984-1.08
				c0.696,0,1.4,0.096,2.088,0.28c2.064,0.544,3.784,1.872,4.848,3.728C41.147,375.83,39.835,380.726,36.011,382.934z
				 M150.931,435.998v0.016c-1.072,1.84-2.792,3.168-4.856,3.728c-2.048,0.536-4.208,0.264-6.064-0.808
				c-3.824-2.2-5.144-7.112-2.928-10.92c1.48-2.568,4.168-4,6.936-4c1.36,0,2.736,0.344,3.992,1.072
				c1.848,1.064,3.168,2.792,3.728,4.848C152.299,431.99,152.003,434.158,150.931,435.998z M356.003,435.07
				c1.256-0.728,2.632-1.072,3.992-1.072c2.768,0,5.472,1.44,6.944,4c1.072,1.848,1.352,4.008,0.8,6.072
				c-0.544,2.064-1.872,3.784-3.728,4.848c-3.824,2.2-8.728,0.888-10.928-2.912C350.883,442.174,352.195,437.27,356.003,435.07z
				 M457.091,372.006c1.064-1.848,2.792-3.168,4.848-3.728c0.688-0.176,1.392-0.272,2.088-0.272c1.384,0,2.752,0.36,3.976,1.08
				h0.016c1.84,1.072,3.168,2.792,3.728,4.856c0.544,2.064,0.264,4.216-0.808,6.064c-2.192,3.816-7.112,5.144-10.92,2.928
				C456.195,380.734,454.875,375.822,457.091,372.006z M248.011,16.006c4.416,0,8,3.584,8,8s-3.584,8-8,8c-4.416,0-8-3.584-8-8
				S243.595,16.006,248.011,16.006z M256.011,472.006c0,4.416-3.584,8-8,8s-8-3.584-8-8c0-4.416,3.584-8,8-8
				S256.011,467.59,256.011,472.006z M248.011,376.006c-70.576,0-128-57.424-128-128s57.424-128,128-128s128,57.424,128,128
				S318.587,376.006,248.011,376.006z"/>
			<path d="M312.011,168.006c-17.648,0-32,14.352-32,32s14.352,32,32,32s32-14.352,32-32S329.659,168.006,312.011,168.006z
				 M312.011,216.006c-8.824,0-16-7.176-16-16c0-8.824,7.176-16,16-16c8.824,0,16,7.176,16,16
				C328.011,208.83,320.835,216.006,312.011,216.006z"/>
			<path d="M176.011,240.006c-17.648,0-32,14.352-32,32s14.352,32,32,32s32-14.352,32-32S193.659,240.006,176.011,240.006z
				 M176.011,288.006c-8.824,0-16-7.176-16-16c0-8.824,7.176-16,16-16c8.824,0,16,7.176,16,16
				C192.011,280.83,184.835,288.006,176.011,288.006z"/>
			<path d="M208.011,152.006c-13.232,0-24,10.768-24,24s10.768,24,24,24s24-10.768,24-24S221.243,152.006,208.011,152.006z
				 M208.011,184.006c-4.416,0-8-3.584-8-8s3.584-8,8-8s8,3.584,8,8S212.427,184.006,208.011,184.006z"/>
			<path d="M256.011,312.006c-13.232,0-24,10.768-24,24s10.768,24,24,24c13.232,0,24-10.768,24-24S269.243,312.006,256.011,312.006z
				 M256.011,344.006c-4.416,0-8-3.584-8-8c0-4.416,3.584-8,8-8c4.416,0,8,3.584,8,8
				C264.011,340.422,260.427,344.006,256.011,344.006z"/>
			<path d="M312.011,272.006c0,13.232,10.768,24,24,24s24-10.768,24-24s-10.768-24-24-24S312.011,258.774,312.011,272.006z
				 M344.011,272.006c0,4.416-3.584,8-8,8c-4.416,0-8-3.584-8-8c0-4.416,3.584-8,8-8
				C340.427,264.006,344.011,267.59,344.011,272.006z"/>
		</g>
	</g>
</g>
</svg>