<?xml version="1.0" encoding="utf-8"?>
<!-- Uploaded to: SVG Repo, www.svgrepo.com, Generator: SVG Repo Mixer Tools -->
<svg width="800px" height="800px" viewBox="-6.14 0 96.057 96.057" xmlns="http://www.w3.org/2000/svg" xmlns:xlink="http://www.w3.org/1999/xlink">
  <defs>
    <linearGradient id="linear-gradient" x1="0.135" y1="0.131" x2="1.18" y2="1.18" gradientUnits="objectBoundingBox">
      <stop offset="0" stop-color="#acf839"/>
      <stop offset="1" stop-color="#6ad952"/>
    </linearGradient>
  </defs>
  <g id="chemistry_tube" data-name="chemistry tube" transform="translate(-662.627 -195.585)">
    <path id="Path_7" data-name="Path 7" d="M704.512,286.69c-1.009,0-1.826-.6-1.826-1.338V207.565c0-.737.817-1.338,1.826-1.338h0c1.006,0,1.824.6,1.824,1.338v77.787c0,.737-.818,1.338-1.824,1.338Z" fill="#797d9f"/>
    <path id="Path_8" data-name="Path 8" d="M719.108,285.093a2,2,0,0,1-1.869,2.117H691.783a2,2,0,0,1-1.869-2.117h0a2.005,2.005,0,0,1,1.869-2.118h25.456a2.005,2.005,0,0,1,1.869,2.118Z" fill="#212954"/>
    <g id="Group_8" data-name="Group 8">
      <path id="Path_9" data-name="Path 9" d="M679.139,262.27a10.433,10.433,0,0,1-10.368-9.726l-.008-.1-.049-.1V197.289h20.854V252.44l-.057.1a10.433,10.433,0,0,1-10.372,9.726Z" fill="#3daaf6"/>
      <path id="Path_10" data-name="Path 10" d="M671.842,200.417v51.918h.049a7.264,7.264,0,0,0,14.5,0h.048V200.417Z" fill="#44c3ff"/>
      <path id="Path_11" data-name="Path 11" d="M685.267,221.913c-1.7-.261-2.608-2.738-4.693-2.868s-2.736,1.173-4.561-1.3a4.709,4.709,0,0,0-4.171-1.56v36.153h.049a7.264,7.264,0,0,0,14.5,0h.048V222.122C685.927,222.024,685.509,221.949,685.267,221.913Z" fill="url(#linear-gradient)"/>
      <path id="Path_12" data-name="Path 12" d="M695.654,199.3a3.567,3.567,0,0,1-3.4,3.715H666.025a3.567,3.567,0,0,1-3.4-3.715h0a3.566,3.566,0,0,1,3.4-3.714h26.231a3.566,3.566,0,0,1,3.4,3.714Z" fill="#3ca4ff"/>
      <g id="Group_7" data-name="Group 7" opacity="0.4">
        <path id="Path_13" data-name="Path 13" d="M681.925,246.112a2.432,2.432,0,1,1-2.432-2.433A2.431,2.431,0,0,1,681.925,246.112Z" fill="#ffffff"/>
        <path id="Path_14" data-name="Path 14" d="M677.407,240.551a1.476,1.476,0,1,1-1.476-1.477A1.474,1.474,0,0,1,677.407,240.551Z" fill="#ffffff"/>
        <path id="Path_15" data-name="Path 15" d="M683.664,236.728a1.477,1.477,0,1,1-1.477-1.476A1.475,1.475,0,0,1,683.664,236.728Z" fill="#ffffff"/>
        <path id="Path_16" data-name="Path 16" d="M684.27,251.411a1.477,1.477,0,1,1-1.475-1.476A1.474,1.474,0,0,1,684.27,251.411Z" fill="#ffffff"/>
        <path id="Path_17" data-name="Path 17" d="M678.666,227.038a1.477,1.477,0,1,1-1.476-1.476A1.475,1.475,0,0,1,678.666,227.038Z" fill="#ffffff"/>
      </g>
    </g>
    <g id="Group_10" data-name="Group 10">
      <path id="Path_18" data-name="Path 18" d="M729.882,262.27a10.432,10.432,0,0,1-10.367-9.726l-.009-.1-.048-.1V197.289h20.853V252.44l-.056.1a10.433,10.433,0,0,1-10.373,9.726Z" fill="#3daaf6"/>
      <path id="Path_19" data-name="Path 19" d="M722.585,200.417v51.918h.049a7.264,7.264,0,0,0,14.5,0h.049V200.417Z" fill="#44c3ff"/>
      <path id="Path_20" data-name="Path 20" d="M736.01,221.913c-1.7-.261-2.607-2.738-4.693-2.868s-2.736,1.173-4.561-1.3a4.707,4.707,0,0,0-4.171-1.56v36.153h.049a7.264,7.264,0,0,0,14.5,0h.049V222.122C736.67,222.024,736.252,221.949,736.01,221.913Z" fill="url(#linear-gradient)"/>
      <path id="Path_21" data-name="Path 21" d="M746.4,199.3a3.568,3.568,0,0,1-3.4,3.715h-26.23a3.568,3.568,0,0,1-3.4-3.715h0a3.568,3.568,0,0,1,3.4-3.714H743a3.567,3.567,0,0,1,3.4,3.714Z" fill="#3ca4ff"/>
      <g id="Group_9" data-name="Group 9" opacity="0.4">
        <path id="Path_22" data-name="Path 22" d="M732.668,246.112a2.432,2.432,0,1,1-2.432-2.433A2.431,2.431,0,0,1,732.668,246.112Z" fill="#ffffff"/>
        <path id="Path_23" data-name="Path 23" d="M728.15,240.551a1.476,1.476,0,1,1-1.476-1.477A1.474,1.474,0,0,1,728.15,240.551Z" fill="#ffffff"/>
        <path id="Path_24" data-name="Path 24" d="M734.407,236.728a1.476,1.476,0,1,1-1.476-1.476A1.475,1.475,0,0,1,734.407,236.728Z" fill="#ffffff"/>
        <path id="Path_25" data-name="Path 25" d="M735.014,251.411a1.477,1.477,0,1,1-1.477-1.476A1.475,1.475,0,0,1,735.014,251.411Z" fill="#ffffff"/>
        <path id="Path_26" data-name="Path 26" d="M729.409,227.038a1.476,1.476,0,1,1-1.475-1.476A1.474,1.474,0,0,1,729.409,227.038Z" fill="#ffffff"/>
      </g>
    </g>
    <path id="Path_27" data-name="Path 27" d="M743.7,216.481c0,1.008-.584,1.825-1.3,1.825H666.627c-.72,0-1.3-.817-1.3-1.825h0c0-1.006.584-1.825,1.3-1.825H742.4c.72,0,1.3.819,1.3,1.825Z" fill="#212954"/>
    <path id="Path_28" data-name="Path 28" d="M725.886,288.9a2.737,2.737,0,0,1-2.737,2.737H685.874a2.736,2.736,0,0,1-2.737-2.737h0a2.737,2.737,0,0,1,2.737-2.737h37.275a2.738,2.738,0,0,1,2.737,2.737Z" fill="#595f7f"/>
  </g>
</svg>